# Blender 4.4.0
# www.blender.org
mtllib scene.mtl
o Plane
v -1.000000 -1.000000 1.000000
v 1.000000 -1.000000 1.000000
v -1.000000 -1.000000 -1.000000
v 1.000000 -1.000000 -1.000000
v -1.000000 -1.000000 1.000000
v 1.000000 -1.000000 1.000000
v -1.000000 -1.000000 -1.000000
v 1.000000 -1.000000 -1.000000
v -1.000000 1.000000 1.000000
v 1.000000 1.000000 1.000000
v -1.000000 1.000000 -1.000000
v 1.000000 1.000000 -1.000000
vn -0.0000 -1.0000 -0.0000
vn 1.0000 -0.0000 -0.0000
vn -0.0000 1.0000 -0.0000
vn -1.0000 -0.0000 -0.0000
vn -0.0000 -0.0000 -1.0000
vn -0.0000 -0.0000 1.0000
vt 0.000000 0.000000
vt 0.000000 1.000000
vt 1.000000 1.000000
vt 1.000000 0.000000
s 0
f 1/1/1 3/2/1 4/3/1 2/4/1
f 6/4/2 8/3/2 12/3/2 10/4/2
f 4/3/3 3/2/3 7/2/3 8/3/3
f 1/1/3 2/4/3 6/4/3 5/1/3
f 2/4/3 4/3/3 8/3/3 6/4/3
f 3/2/3 1/1/3 5/1/3 7/2/3
f 9/1/3 10/4/3 12/3/3 11/2/3
f 7/2/4 5/1/4 9/1/4 11/2/4
f 8/3/5 7/2/5 11/2/5 12/3/5
f 5/1/6 6/4/6 10/4/6 9/1/6
